<svg id="e66b249b-97c4-4b43-a21d-c4a94c4a0ed2" data-name="Capa 1" xmlns="http://www.w3.org/2000/svg" viewBox="0 0 449.4 477.83"><title>airline</title><path d="M449.54,217.62l-98-56.28V150.26h7v-21h4.37c0-7-6.66-14.87-14.87-14.87s-14.88,7.87-14.88,14.87h4.38v21h7v7.07l-42-24.12v-11h7v-21h4.37c0-7-6.65-14.88-14.87-14.88s-14.87,7.88-14.87,14.88h4.37v21h7v6.93l-22.53-13C273,16.08,239.57,0,239.57,0s-33.46,16.08-33.46,116.24l-22.53,13v-6.93h7v-21H195c0-7-6.66-14.87-14.88-14.87s-14.87,7.87-14.87,14.87h4.38v21h7v11l-42,24.11v-7.06h7v-21H146c0-7-6.65-14.87-14.87-14.87s-14.87,7.87-14.87,14.87h4.37v21h7v11.08l-98,56.28v9.62s-2,11.38-2,19.25L37,243l8.31,3.5,1.75-8.75,45.5-11.06v19.59a2,2,0,0,0,2,2h3.07a2,2,0,0,0,2-2V225l35-8.5v15.78a2,2,0,0,0,2,2h3.07a2,2,0,0,0,2-2V214.79l35-8.51v12a2,2,0,0,0,2,2h3.06a2,2,0,0,0,2-2V204.57l20.12-4.89s1.09,14.66,8.32,21.88c0,0,.87,29.74.87,67.8s14.87,76.55,14.87,76.55l-66,41.12-.43,19.25,74.25-18.38s-3,12.69,4,16.63c7-3.93,3-16.63,3-16.63l73.23,18.38L315.41,407l-66-41.12s14.87-38.49,14.87-76.55.89-67.8.89-67.8c7.22-7.22,8.35-21.88,8.35-21.88l22.08,5.37v13.23a2,2,0,0,0,2,2h3.07a2,2,0,0,0,2-2V206.75l35,8.51v17a2,2,0,0,0,2,2h3.08a2,2,0,0,0,2-2V217l35,8.5v20.82a2,2,0,0,0,2,2h3.08a2,2,0,0,0,2-2V227.15l43.59,10.59,1.87,8.75,8.57-3.5,10,3.5c0-7.87-1-19.25-1-19.25v-9.62Z" transform="translate(-13.17 0)" style="fill:#be3df4"/><path d="M19.58,468.29H13.17V435.45h6.41Z" transform="translate(-13.17 0)"/><path d="M25.91,444.85H32.1v23.44H25.91Zm13.55,9.24a3.55,3.55,0,0,0-1-2.67,3.88,3.88,0,0,0-2.79-.95,3.55,3.55,0,0,0-2.66,1,3.72,3.72,0,0,0-.93,2.7l-.48-5.19a8.77,8.77,0,0,1,2.54-3.32,6,6,0,0,1,3.72-1.11,7,7,0,0,1,5.74,2.5q2,2.49,2,7.05v14.23H39.46Z" transform="translate(-13.17 0)"/><path d="M49.94,444.85H61.42v5.28H49.94Zm3.85,22a6.71,6.71,0,0,1-1.43-4.64V438h6.19v22.63a2.18,2.18,0,0,0,.34,1.32,1.13,1.13,0,0,0,1,.46h1.54v6H58.3A5.86,5.86,0,0,1,53.79,466.84Z" transform="translate(-13.17 0)"/><path d="M71.09,467.4a8.48,8.48,0,0,1-3.67-3.59,11.91,11.91,0,0,1-1.26-5.68v-2.64a13.3,13.3,0,0,1,1.21-5.94,8.42,8.42,0,0,1,3.52-3.75,11.35,11.35,0,0,1,5.59-1.29,8.88,8.88,0,0,1,5.26,1.54,9.39,9.39,0,0,1,3.34,4.46,19.43,19.43,0,0,1,1.14,7.05v1.54h-16v-4.18H80.57l-.07-.54a5.45,5.45,0,0,0-1.27-3.14,3.57,3.57,0,0,0-2.75-1.11A4.5,4.5,0,0,0,73,451.47a5.33,5.33,0,0,0-1.23,3.77v3a4.9,4.9,0,0,0,1.35,3.7,5.12,5.12,0,0,0,3.76,1.31,7,7,0,0,0,2.46-.44,7.43,7.43,0,0,0,2.21-1.25l4,3.59a13.41,13.41,0,0,1-4.11,2.59,12.29,12.29,0,0,1-4.61.91A12.64,12.64,0,0,1,71.09,467.4Z" transform="translate(-13.17 0)"/><path d="M91.64,444.85h6.64v23.44H91.64Zm12.08,5.85a4.61,4.61,0,0,0-1.51-.23,3.61,3.61,0,0,0-2.9,1.21,5,5,0,0,0-1,3.36l-.48-6.1a8.47,8.47,0,0,1,2.52-3.27,5.57,5.57,0,0,1,3.4-1.16,7.24,7.24,0,0,1,2.66.46,5.77,5.77,0,0,1,2.06,1.37l-3.61,5A2.85,2.85,0,0,0,103.72,450.7Z" transform="translate(-13.17 0)"/><path d="M111.38,444.85h6.19v23.44h-6.19Zm13.55,9.24a3.55,3.55,0,0,0-1-2.67,3.88,3.88,0,0,0-2.79-.95,3.53,3.53,0,0,0-2.65,1,3.68,3.68,0,0,0-.94,2.7l-.48-5.19a8.68,8.68,0,0,1,2.55-3.32,6,6,0,0,1,3.71-1.11,7,7,0,0,1,5.74,2.5q2,2.49,2,7.05v14.23h-6.19Z" transform="translate(-13.17 0)"/><path d="M138,466.84q-1.86-1.8-1.86-5.46a6.41,6.41,0,0,1,2.09-5.22q2.08-1.73,6.27-1.73h5.87l.32,4.72h-6.17a3.35,3.35,0,0,0-2.1.55,2,2,0,0,0-.7,1.68,1.87,1.87,0,0,0,.88,1.71,5.12,5.12,0,0,0,2.67.55,9.31,9.31,0,0,0,3.69-.56,1.87,1.87,0,0,0,1.21-1.77l.47,3.42a3.22,3.22,0,0,1-1.16,2.14,6.7,6.7,0,0,1-2.58,1.32,11.62,11.62,0,0,1-3.26.44C141.07,468.63,139.2,468,138,466.84Zm12.17-13.41a3,3,0,0,0-1.09-2.51A4.78,4.78,0,0,0,146,450a8.38,8.38,0,0,0-2.6.43,7.86,7.86,0,0,0-2.28,1.2l-3.84-3.77a9.32,9.32,0,0,1,3.71-2.5,14.07,14.07,0,0,1,5.1-.89,12.06,12.06,0,0,1,5.24,1,7.34,7.34,0,0,1,3.31,3,9.18,9.18,0,0,1,1.14,4.71v15.06h-5.62Z" transform="translate(-13.17 0)"/><path d="M160,444.85h11.48v5.28H160Zm3.85,22a6.71,6.71,0,0,1-1.43-4.64V438h6.19v22.63A2.18,2.18,0,0,0,169,462a1.13,1.13,0,0,0,1,.46h1.54v6h-3.12A5.86,5.86,0,0,1,163.88,466.84Z" transform="translate(-13.17 0)"/><path d="M176.59,435.45h6.19v6.19h-6.19Zm0,9.4h6.19v23.44h-6.19Z" transform="translate(-13.17 0)"/><path d="M192.5,467.44a8.07,8.07,0,0,1-3.45-3.49,11.92,11.92,0,0,1-1.19-5.53v-3.81a11.65,11.65,0,0,1,1.19-5.46,8,8,0,0,1,3.45-3.45,13.21,13.21,0,0,1,11,0,8,8,0,0,1,3.45,3.45,11.65,11.65,0,0,1,1.19,5.46v3.88a11.7,11.7,0,0,1-1.19,5.48,8.08,8.08,0,0,1-3.45,3.47,13.21,13.21,0,0,1-11,0Zm8.37-5.87a4.3,4.3,0,0,0,1-3.08v-3.88a4.24,4.24,0,0,0-1-3.05,3.81,3.81,0,0,0-2.91-1.09,3.74,3.74,0,0,0-2.88,1.09,4.23,4.23,0,0,0-1,3.05v3.88a4.34,4.34,0,0,0,1,3.08,3.74,3.74,0,0,0,2.89,1.1A3.81,3.81,0,0,0,200.87,461.57Z" transform="translate(-13.17 0)"/><path d="M213.75,444.85h6.19v23.44h-6.19Zm13.55,9.24a3.55,3.55,0,0,0-1-2.67,3.88,3.88,0,0,0-2.79-.95,3.55,3.55,0,0,0-2.66,1,3.72,3.72,0,0,0-.93,2.7l-.48-5.19a8.77,8.77,0,0,1,2.54-3.32,6,6,0,0,1,3.72-1.11,7,7,0,0,1,5.74,2.5q2,2.49,2,7.05v14.23H227.3Z" transform="translate(-13.17 0)"/><path d="M240.32,466.84q-1.86-1.8-1.86-5.46a6.38,6.38,0,0,1,2.09-5.22q2.08-1.73,6.26-1.73h5.88l.31,4.72h-6.16a3.31,3.31,0,0,0-2.1.55,2,2,0,0,0-.7,1.68,1.87,1.87,0,0,0,.88,1.71,5.05,5.05,0,0,0,2.66.55,9.33,9.33,0,0,0,3.7-.56,1.86,1.86,0,0,0,1.2-1.77l.48,3.42a3.19,3.19,0,0,1-1.17,2.14,6.59,6.59,0,0,1-2.57,1.32,11.62,11.62,0,0,1-3.26.44Q242.18,468.63,240.32,466.84Zm12.16-13.41a3.07,3.07,0,0,0-1.08-2.51,4.8,4.8,0,0,0-3.07-.88,8.33,8.33,0,0,0-2.6.43,7.74,7.74,0,0,0-2.28,1.2l-3.84-3.77a9.29,9.29,0,0,1,3.7-2.5,14.16,14.16,0,0,1,5.11-.89,12.09,12.09,0,0,1,5.24,1,7.39,7.39,0,0,1,3.31,3,9.18,9.18,0,0,1,1.14,4.71v15.06h-5.63Z" transform="translate(-13.17 0)"/><path d="M270.4,460.55a1.75,1.75,0,0,0,.48,1.32,1.94,1.94,0,0,0,1.39.46h1v6h-3.16a5.78,5.78,0,0,1-4.38-1.62,6.37,6.37,0,0,1-1.56-4.59V435.45h6.19Z" transform="translate(-13.17 0)"/><path d="M296.2,468.16a19.89,19.89,0,0,1-4.22-1.39,16.14,16.14,0,0,1-3.54-2.2l2.87-5.11a14.11,14.11,0,0,0,4.38,2.41,15.88,15.88,0,0,0,5.11.85,9.05,9.05,0,0,0,4.7-1,3.24,3.24,0,0,0,1.67-2.91v0a2.87,2.87,0,0,0-.75-2.08,4.48,4.48,0,0,0-1.94-1.13,24.56,24.56,0,0,0-3.07-.65.32.32,0,0,0-.13,0l-.12,0-.5-.06a30.55,30.55,0,0,1-5.46-1.3,8,8,0,0,1-3.68-2.73,8.92,8.92,0,0,1-1.52-5.55v0a10.1,10.1,0,0,1,1.42-5.45,9,9,0,0,1,4.14-3.44,16.31,16.31,0,0,1,6.55-1.19,16.78,16.78,0,0,1,3.6.41,19.4,19.4,0,0,1,3.6,1.17,20.28,20.28,0,0,1,3.35,1.86L310,443.79a16.79,16.79,0,0,0-4-2,12,12,0,0,0-4-.72,8.55,8.55,0,0,0-4.41.94,2.92,2.92,0,0,0-1.55,2.63v0a3.07,3.07,0,0,0,.81,2.25,4.87,4.87,0,0,0,2,1.21,32.37,32.37,0,0,0,3.36.81l.19,0,.18,0a1.22,1.22,0,0,1,.26.06l.26.05a27.73,27.73,0,0,1,5.2,1.48,8.09,8.09,0,0,1,3.49,2.8,8.8,8.8,0,0,1,1.4,5.28v0a9.59,9.59,0,0,1-1.47,5.38,9.09,9.09,0,0,1-4.28,3.41,17.56,17.56,0,0,1-6.76,1.17A22.65,22.65,0,0,1,296.2,468.16Z" transform="translate(-13.17 0)"/><path d="M318.51,435.45h6.19v32.84h-6.19Zm13.55,18.64a3.55,3.55,0,0,0-1-2.67,3.88,3.88,0,0,0-2.79-.95,3.55,3.55,0,0,0-2.66,1,3.72,3.72,0,0,0-.93,2.7l-.48-5.19a8.77,8.77,0,0,1,2.54-3.32,6,6,0,0,1,3.72-1.11,7,7,0,0,1,5.74,2.5q2,2.49,2,7.05v14.23h-6.19Z" transform="translate(-13.17 0)"/><path d="M344,435.45h6.19v6.19H344Zm0,9.4h6.19v23.44H344Z" transform="translate(-13.17 0)"/><path d="M356,444.85h6.19v33H356ZM364,467.58a6.18,6.18,0,0,1-2.21-3l.32-5.35a4.34,4.34,0,0,0,.4,2,2.82,2.82,0,0,0,1.19,1.25,3.94,3.94,0,0,0,1.89.43,3.31,3.31,0,0,0,2.69-1.16,4.92,4.92,0,0,0,1-3.25v-3.73a5.16,5.16,0,0,0-1-3.33,3.27,3.27,0,0,0-2.69-1.18,3.72,3.72,0,0,0-1.89.44,2.87,2.87,0,0,0-1.19,1.27,4.67,4.67,0,0,0-.4,2l-.48-5.2a7.83,7.83,0,0,1,2.5-3.17,5.67,5.67,0,0,1,3.42-1.12,7,7,0,0,1,7,4.7,15,15,0,0,1,.92,5.53v3.75a14.64,14.64,0,0,1-.92,5.48,7,7,0,0,1-7,4.66A6,6,0,0,1,364,467.58Z" transform="translate(-13.17 0)"/><path d="M381.12,444.85h6.19v33h-6.19Zm8.09,22.73a6.14,6.14,0,0,1-2.22-3l.32-5.35a4.21,4.21,0,0,0,.41,2,2.8,2.8,0,0,0,1.18,1.25,3.94,3.94,0,0,0,1.89.43,3.32,3.32,0,0,0,2.7-1.16,4.92,4.92,0,0,0,1-3.25v-3.73a5.16,5.16,0,0,0-1-3.33,3.28,3.28,0,0,0-2.7-1.18,3.72,3.72,0,0,0-1.89.44,2.85,2.85,0,0,0-1.18,1.27,4.53,4.53,0,0,0-.41,2l-.48-5.2a7.92,7.92,0,0,1,2.5-3.17,5.67,5.67,0,0,1,3.42-1.12,7,7,0,0,1,7,4.7,14.74,14.74,0,0,1,.93,5.53v3.75a14.44,14.44,0,0,1-.93,5.48,7,7,0,0,1-7,4.66A6,6,0,0,1,389.21,467.58Z" transform="translate(-13.17 0)"/><path d="M405.94,435.45h6.19v6.19h-6.19Zm0,9.4h6.19v23.44h-6.19Z" transform="translate(-13.17 0)"/><path d="M417.89,444.85h6.19v23.44h-6.19Zm13.56,9.24a3.52,3.52,0,0,0-1-2.67,3.85,3.85,0,0,0-2.79-.95,3.53,3.53,0,0,0-2.65,1,3.68,3.68,0,0,0-.94,2.7l-.47-5.19a8.67,8.67,0,0,1,2.54-3.32,6,6,0,0,1,3.71-1.11,7,7,0,0,1,5.74,2.5c1.36,1.66,2,4,2,7.05v14.23h-6.18Z" transform="translate(-13.17 0)"/><path d="M446.68,467.44A7.49,7.49,0,0,1,444,464a14.44,14.44,0,0,1-.93-5.48v-3.75a14.74,14.74,0,0,1,.93-5.53,7,7,0,0,1,7-4.7,5.67,5.67,0,0,1,3.42,1.12,7.92,7.92,0,0,1,2.5,3.17l-.48,5.2a4.53,4.53,0,0,0-.41-2,2.85,2.85,0,0,0-1.18-1.27,3.72,3.72,0,0,0-1.89-.44,3.28,3.28,0,0,0-2.7,1.18,5.16,5.16,0,0,0-1,3.33v3.73a4.92,4.92,0,0,0,1,3.25,3.32,3.32,0,0,0,2.7,1.16,3.94,3.94,0,0,0,1.89-.43,2.8,2.8,0,0,0,1.18-1.25,4.21,4.21,0,0,0,.41-2l.32,5.35a6.14,6.14,0,0,1-2.22,3,6,6,0,0,1-3.54,1.05A7.48,7.48,0,0,1,446.68,467.44Zm.36,9.4a7.86,7.86,0,0,1-3.42-2.76l4.16-3.82a5.38,5.38,0,0,0,1.89,1.32A5.92,5.92,0,0,0,452,472a4.67,4.67,0,0,0,3.17-1.06,3.66,3.66,0,0,0,1.23-2.93v-23.2h6.19v22.74a11.62,11.62,0,0,1-1.23,5.54,8.2,8.2,0,0,1-3.59,3.5,12.51,12.51,0,0,1-5.71,1.2A12.09,12.09,0,0,1,447,476.84Z" transform="translate(-13.17 0)"/></svg>