<svg id="b5abe9f6-3faa-4c13-b24b-6da2ac0fc564" data-name="Capa 1" xmlns="http://www.w3.org/2000/svg" viewBox="0 0 417.89 333.89"><title>car</title><path d="M415,147.24a8.51,8.51,0,0,0-7.46-5.15H369.35a8.76,8.76,0,0,0-6.76,3.77c-8-19.09-17.27-38.74-26.14-52.36a12.53,12.53,0,0,0-6.8-5.12c-1.62-.5-40.54-12.19-120.71-12.19S89.86,87.88,88.24,88.38a12.5,12.5,0,0,0-6.8,5.12c-8.88,13.63-18.11,33.27-26.15,52.36a8.72,8.72,0,0,0-6.75-3.77H10.35a8.48,8.48,0,0,0-7.45,5.15c-3.87,11.25-3.87,17.7,0,29a8.49,8.49,0,0,0,7.45,5.14H30.43a51.45,51.45,0,0,0-15.14,36.48,14.78,14.78,0,0,0,.13,2l1.21,8.88a14.67,14.67,0,0,0,3.52,7.71v20.19H19a5,5,0,0,0-5,5v59.82a20.33,20.33,0,0,0,20.3,20.29H74.85a20.32,20.32,0,0,0,20.29-20.3V295.7H324.83v25.7a20.32,20.32,0,0,0,20.29,20.3h40.57A20.32,20.32,0,0,0,406,321.4V261.59a5,5,0,0,0-5-5h-1.16V238.36a14.73,14.73,0,0,0,5.6-9.68l1.21-8.87a14.78,14.78,0,0,0,.13-2,51.45,51.45,0,0,0-15.14-36.48h15.91A8.49,8.49,0,0,0,415,176.2C418.85,164.94,418.85,158.49,415,147.24ZM99.89,111.18c11.79-2.82,47.8-10,109.05-10s97.3,7.17,109.06,10c8.35,13.87,17.13,33.46,24.6,51.83-19.64-3.19-58.32-6.83-132.61-6.83-79,0-117.09,4.17-135,7.54C82.53,145.15,91.42,125.24,99.89,111.18ZM30.66,284.53v-13h35.5l3.75,13Zm-.51-27.94V232l69,4.44,6.73,20.14Zm264.64,25.93H125.18L120,265.63H300Zm8.76-25.93H116.42l-5.06-15.14H308.61ZM108.28,232l-5.17-16.8H316.86L311.69,232Zm281,52.56H350.06l3.75-13h35.5v13Zm.51-27.94H314.1l6.73-20.14,69-4.44Z" transform="translate(0 -76.19)" style="fill:#3dc8f9"/><path d="M65.3,367.45h6.19v32.84H65.3Zm2.76,26.88H87.3v6H68.06Z" transform="translate(0 -76.19)"/><path d="M95.33,399.44A8.07,8.07,0,0,1,91.88,396a11.79,11.79,0,0,1-1.19-5.53v-3.81a11.53,11.53,0,0,1,1.19-5.46,8,8,0,0,1,3.45-3.45,13.21,13.21,0,0,1,11,0,8,8,0,0,1,3.45,3.45,11.65,11.65,0,0,1,1.19,5.46v3.88a11.7,11.7,0,0,1-1.19,5.48,8.08,8.08,0,0,1-3.45,3.47,13.21,13.21,0,0,1-11,0Zm8.37-5.87a4.3,4.3,0,0,0,1-3.08v-3.88a4.24,4.24,0,0,0-1-3.05,3.81,3.81,0,0,0-2.91-1.09,3.74,3.74,0,0,0-2.88,1.09,4.23,4.23,0,0,0-1,3.05v3.88a4.34,4.34,0,0,0,1,3.08,3.74,3.74,0,0,0,2.89,1.1A3.81,3.81,0,0,0,103.7,393.57Z" transform="translate(0 -76.19)"/><path d="M120.77,399.36a8.48,8.48,0,0,1-3.63-3.72,12.78,12.78,0,0,1-1.24-5.87v-2.51a12.57,12.57,0,0,1,1.24-5.82,8.52,8.52,0,0,1,3.63-3.67,12.05,12.05,0,0,1,5.72-1.26,14.68,14.68,0,0,1,3.63.44,11,11,0,0,1,3.06,1.28,8.17,8.17,0,0,1,2.26,2l-4,3.88a6.39,6.39,0,0,0-2-1.23,6.83,6.83,0,0,0-2.42-.44,5,5,0,0,0-3.64,1.26,4.72,4.72,0,0,0-1.28,3.53v2.51a4.9,4.9,0,0,0,1.28,3.62,5,5,0,0,0,3.64,1.28,6.46,6.46,0,0,0,2.44-.47,5.74,5.74,0,0,0,2-1.36l4,4.11a8.53,8.53,0,0,1-2.29,2,10.86,10.86,0,0,1-3,1.25,14.54,14.54,0,0,1-3.62.43A11.93,11.93,0,0,1,120.77,399.36Z" transform="translate(0 -76.19)"/><path d="M140.35,398.84c-1.24-1.2-1.87-3-1.87-5.46a6.41,6.41,0,0,1,2.09-5.22q2.1-1.73,6.27-1.73h5.88l.31,4.72h-6.16a3.37,3.37,0,0,0-2.11.55,2,2,0,0,0-.7,1.68,1.89,1.89,0,0,0,.88,1.71,5.12,5.12,0,0,0,2.67.55,9.24,9.24,0,0,0,3.69-.56,1.86,1.86,0,0,0,1.21-1.77l.48,3.42a3.19,3.19,0,0,1-1.17,2.14,6.59,6.59,0,0,1-2.57,1.32,11.64,11.64,0,0,1-3.27.44Q142.22,400.63,140.35,398.84Zm12.16-13.41a3.07,3.07,0,0,0-1.08-2.51,4.8,4.8,0,0,0-3.07-.88,8.33,8.33,0,0,0-2.6.43,7.74,7.74,0,0,0-2.28,1.2l-3.84-3.77a9.29,9.29,0,0,1,3.7-2.5,14.16,14.16,0,0,1,5.11-.89,12.12,12.12,0,0,1,5.24,1,7.44,7.44,0,0,1,3.31,3,9.18,9.18,0,0,1,1.14,4.71v15.06h-5.63Z" transform="translate(0 -76.19)"/><path d="M170.42,392.55a1.76,1.76,0,0,0,.49,1.32,1.93,1.93,0,0,0,1.39.46h1v6h-3.16a5.8,5.8,0,0,1-4.39-1.62,6.37,6.37,0,0,1-1.56-4.59V367.45h6.19Z" transform="translate(0 -76.19)"/><path d="M190.5,367.45h6.19v32.84H190.5Zm3.12,26.88h7.88a6.94,6.94,0,0,0,4.73-1.47,5.24,5.24,0,0,0,1.67-4.15V379a5.26,5.26,0,0,0-1.67-4.16,6.94,6.94,0,0,0-4.73-1.46h-7.88v-6h7.75a16.2,16.2,0,0,1,7,1.38,9.77,9.77,0,0,1,4.42,4,12.62,12.62,0,0,1,1.51,6.37v9.31a12.56,12.56,0,0,1-1.46,6.19,9.91,9.91,0,0,1-4.37,4.11,15.84,15.84,0,0,1-7.13,1.46h-7.73Z" transform="translate(0 -76.19)"/><path d="M224.67,399.4a8.38,8.38,0,0,1-3.67-3.59,11.8,11.8,0,0,1-1.27-5.68v-2.64a13.3,13.3,0,0,1,1.21-5.94,8.47,8.47,0,0,1,3.52-3.75,11.36,11.36,0,0,1,5.6-1.29,8.9,8.9,0,0,1,5.26,1.54,9.44,9.44,0,0,1,3.33,4.46,19.43,19.43,0,0,1,1.14,7.05v1.54h-16v-4.18h10.39l-.06-.54a5.52,5.52,0,0,0-1.28-3.14,3.56,3.56,0,0,0-2.74-1.11,4.48,4.48,0,0,0-3.47,1.34,5.33,5.33,0,0,0-1.23,3.77v3a4.9,4.9,0,0,0,1.34,3.7,5.14,5.14,0,0,0,3.76,1.31,7,7,0,0,0,2.46-.44,7.48,7.48,0,0,0,2.22-1.25l4,3.59a13.41,13.41,0,0,1-4.11,2.59,12.29,12.29,0,0,1-4.61.91A12.57,12.57,0,0,1,224.67,399.4Z" transform="translate(0 -76.19)"/><path d="M251.4,392.55a1.72,1.72,0,0,0,.49,1.32,1.9,1.9,0,0,0,1.38.46h1v6h-3.16a5.8,5.8,0,0,1-4.38-1.62,6.37,6.37,0,0,1-1.56-4.59V367.45h6.19Z" transform="translate(0 -76.19)"/><path d="M258.27,367.45h6.19v6.19h-6.19Zm0,9.4h6.19v23.44h-6.19Z" transform="translate(0 -76.19)"/><path d="M283.57,376.85h6.16l-8.81,23.44h-4.38l-8.81-23.44h6.17l4.83,14.7Z" transform="translate(0 -76.19)"/><path d="M297.15,399.4a8.43,8.43,0,0,1-3.67-3.59,11.91,11.91,0,0,1-1.26-5.68v-2.64a13.44,13.44,0,0,1,1.2-5.94A8.44,8.44,0,0,1,297,377.8a11.32,11.32,0,0,1,5.59-1.29,8.88,8.88,0,0,1,5.26,1.54,9.44,9.44,0,0,1,3.33,4.46,19.43,19.43,0,0,1,1.14,7.05v1.54h-16v-4.18h10.39l-.07-.54a5.45,5.45,0,0,0-1.28-3.14,3.55,3.55,0,0,0-2.74-1.11,4.49,4.49,0,0,0-3.47,1.34,5.33,5.33,0,0,0-1.23,3.77v3a4.94,4.94,0,0,0,1.34,3.7,5.15,5.15,0,0,0,3.77,1.31,7.1,7.1,0,0,0,2.46-.44,7.43,7.43,0,0,0,2.21-1.25l4,3.59a13.41,13.41,0,0,1-4.11,2.59,12.24,12.24,0,0,1-4.6.91A12.61,12.61,0,0,1,297.15,399.4Z" transform="translate(0 -76.19)"/><path d="M317.69,376.85h6.64v23.44h-6.64Zm12.09,5.85a4.65,4.65,0,0,0-1.51-.23,3.64,3.64,0,0,0-2.91,1.21,5.05,5.05,0,0,0-1,3.36l-.47-6.1a8.47,8.47,0,0,1,2.52-3.27,5.55,5.55,0,0,1,3.4-1.16,7.19,7.19,0,0,1,2.65.46,5.9,5.9,0,0,1,2.07,1.37l-3.61,5A2.92,2.92,0,0,0,329.78,382.7Z" transform="translate(0 -76.19)"/><path d="M335,376.85h5.83l7.88,20.37-3.91,5Zm21.66,0-10.43,28.93a7.39,7.39,0,0,1-1.46,2.54,4.87,4.87,0,0,1-2.15,1.35,10.54,10.54,0,0,1-3.15.4h-1.37v-6h1.37a3,3,0,0,0,1.66-.44,2.73,2.73,0,0,0,1-1.44l8.7-25.34Z" transform="translate(0 -76.19)"/></svg>