<svg id="a836a5b8-7f07-480c-9808-f7aa92b6ad63" data-name="Layer 1" xmlns="http://www.w3.org/2000/svg" viewBox="0 0 508 414.83"><title>Localdelivery</title><path d="M294.3,78.9H21.2A21.21,21.21,0,0,0,0,100.1V355.4a21.21,21.21,0,0,0,21.2,21.2H315.5V100.1A21.21,21.21,0,0,0,294.3,78.9Z" transform="translate(0 -78.9)" style="fill:#0e212b"/><path d="M425.9,149.4H315.5V376.5H486.8A21.21,21.21,0,0,0,508,355.3v-108Z" transform="translate(0 -78.9)" style="fill:#3dc8f9"/><polygon points="477.2 164.7 416 91.7 336.7 91.7 336.7 164.7 477.2 164.7" style="fill:#fff"/><path d="M375.3,289.5H338.5a.47.47,0,0,1-.5-.5v-9.2a.47.47,0,0,1,.5-.5h36.8a.47.47,0,0,1,.5.5V289A.47.47,0,0,1,375.3,289.5Z" transform="translate(0 -78.9)" style="fill:#fff"/><circle cx="113.6" cy="297.7" r="52.5" style="fill:#0e212b"/><circle cx="411.7" cy="297.7" r="52.5" style="fill:#0e212b"/><circle cx="411.7" cy="297.7" r="31.1" style="fill:#fff"/><circle cx="113.6" cy="297.7" r="31.1" style="fill:#fff"/><path d="M58.68,484H52.26V451.11h6.42Z" transform="translate(0 -78.9)"/><path d="M65,460.5h6.19V484H65Zm13.55,9.24a3.5,3.5,0,0,0-1-2.66,3.81,3.81,0,0,0-2.79-.95,3.53,3.53,0,0,0-2.65,1,3.68,3.68,0,0,0-.94,2.7l-.47-5.2a8.73,8.73,0,0,1,2.54-3.32A6,6,0,0,1,77,460.16a7,7,0,0,1,5.74,2.5c1.36,1.66,2,4,2,7.06V484H78.55Z" transform="translate(0 -78.9)"/><path d="M89,460.5h11.47v5.29H89Zm3.85,22a6.63,6.63,0,0,1-1.44-4.64V453.68h6.19v22.63a2.2,2.2,0,0,0,.34,1.33,1.18,1.18,0,0,0,1,.46h1.54v6H97.39A5.79,5.79,0,0,1,92.89,482.49Z" transform="translate(0 -78.9)"/><path d="M110.19,483.06a8.38,8.38,0,0,1-3.67-3.59,11.82,11.82,0,0,1-1.27-5.68v-2.65a13.44,13.44,0,0,1,1.21-5.94,8.47,8.47,0,0,1,3.52-3.75,11.36,11.36,0,0,1,5.6-1.29,9,9,0,0,1,5.26,1.54,9.44,9.44,0,0,1,3.33,4.46,19.49,19.49,0,0,1,1.14,7.06v1.54h-16v-4.18h10.39l-.06-.54a5.49,5.49,0,0,0-1.28-3.14,3.56,3.56,0,0,0-2.74-1.11,4.47,4.47,0,0,0-3.47,1.33,5.37,5.37,0,0,0-1.23,3.77v3a4.91,4.91,0,0,0,1.34,3.7,5.18,5.18,0,0,0,3.76,1.31,7.26,7.26,0,0,0,2.46-.44,7.48,7.48,0,0,0,2.22-1.25l4,3.59a13.57,13.57,0,0,1-4.11,2.58,12.3,12.3,0,0,1-4.61.92A12.57,12.57,0,0,1,110.19,483.06Z" transform="translate(0 -78.9)"/><path d="M130.73,460.5h6.64V484h-6.64Zm12.09,5.85a4.72,4.72,0,0,0-1.52-.22,3.58,3.58,0,0,0-2.9,1.21,5,5,0,0,0-1,3.35l-.47-6.1a8.27,8.27,0,0,1,2.52-3.26,5.5,5.5,0,0,1,3.4-1.17,7.23,7.23,0,0,1,2.65.47,5.87,5.87,0,0,1,2.07,1.36l-3.62,5A2.88,2.88,0,0,0,142.82,466.35Z" transform="translate(0 -78.9)"/><path d="M169.07,483.81a20.06,20.06,0,0,1-4.22-1.38,16.56,16.56,0,0,1-3.54-2.21l2.87-5.1a13.83,13.83,0,0,0,4.39,2.4,15.51,15.51,0,0,0,5.1.85,9,9,0,0,0,4.7-1,3.23,3.23,0,0,0,1.67-2.9v0a2.84,2.84,0,0,0-.75-2.08,4.38,4.38,0,0,0-1.94-1.13,24.35,24.35,0,0,0-3.07-.66l-.12,0-.13,0-.5-.07a29.92,29.92,0,0,1-5.46-1.3,8,8,0,0,1-3.68-2.73,8.86,8.86,0,0,1-1.52-5.54v0a10,10,0,0,1,1.43-5.44,9,9,0,0,1,4.13-3.45,16.32,16.32,0,0,1,6.55-1.18,16.1,16.1,0,0,1,3.6.41,19.74,19.74,0,0,1,3.61,1.17,20.55,20.55,0,0,1,3.34,1.85l-2.62,5.24a16.75,16.75,0,0,0-4-2,12,12,0,0,0-4-.72,8.6,8.6,0,0,0-4.4.93,2.94,2.94,0,0,0-1.56,2.64v0a3.07,3.07,0,0,0,.81,2.25,4.74,4.74,0,0,0,2,1.2,31.61,31.61,0,0,0,3.37.82l.18,0,.18,0,.26.06.26.06a26.79,26.79,0,0,1,5.2,1.48,8,8,0,0,1,3.49,2.8,8.77,8.77,0,0,1,1.4,5.27v.05a9.63,9.63,0,0,1-1.46,5.37,9.19,9.19,0,0,1-4.28,3.41,17.42,17.42,0,0,1-6.77,1.18A22,22,0,0,1,169.07,483.81Z" transform="translate(0 -78.9)"/><path d="M189.57,460.5h11.48v5.29H189.57Zm3.85,22a6.68,6.68,0,0,1-1.43-4.64V453.68h6.19v22.63a2.2,2.2,0,0,0,.34,1.33,1.15,1.15,0,0,0,1,.46h1.54v6h-3.12A5.82,5.82,0,0,1,193.42,482.49Z" transform="translate(0 -78.9)"/><path d="M207.2,482.49q-1.86-1.78-1.86-5.45a6.38,6.38,0,0,1,2.09-5.22q2.08-1.74,6.27-1.74h5.87l.31,4.72h-6.16a3.38,3.38,0,0,0-2.1.55,2,2,0,0,0-.7,1.69,1.86,1.86,0,0,0,.88,1.7,5.07,5.07,0,0,0,2.66.56,9.12,9.12,0,0,0,3.7-.57,1.84,1.84,0,0,0,1.2-1.76l.48,3.41a3.24,3.24,0,0,1-1.16,2.15,7,7,0,0,1-2.58,1.32,12,12,0,0,1-3.26.44Q209.06,484.29,207.2,482.49Zm12.16-13.4a3.05,3.05,0,0,0-1.08-2.51,4.74,4.74,0,0,0-3.07-.88,8.1,8.1,0,0,0-2.6.43,7.3,7.3,0,0,0-2.28,1.2l-3.84-3.78a9.17,9.17,0,0,1,3.7-2.49,14,14,0,0,1,5.11-.9,12.24,12.24,0,0,1,5.24,1,7.45,7.45,0,0,1,3.31,3,9.23,9.23,0,0,1,1.14,4.71V484h-5.63Z" transform="translate(0 -78.9)"/><path d="M229.28,460.5h11.48v5.29H229.28Zm3.85,22a6.68,6.68,0,0,1-1.43-4.64V453.68h6.19v22.63a2.2,2.2,0,0,0,.34,1.33,1.15,1.15,0,0,0,1,.46h1.54v6h-3.12A5.82,5.82,0,0,1,233.13,482.49Z" transform="translate(0 -78.9)"/><path d="M250.43,483.06a8.48,8.48,0,0,1-3.67-3.59,11.94,11.94,0,0,1-1.26-5.68v-2.65a13.3,13.3,0,0,1,1.21-5.94,8.42,8.42,0,0,1,3.52-3.75,11.32,11.32,0,0,1,5.59-1.29,9,9,0,0,1,5.26,1.54,9.45,9.45,0,0,1,3.34,4.46,19.49,19.49,0,0,1,1.14,7.06v1.54h-16v-4.18h10.39l-.07-.54a5.42,5.42,0,0,0-1.27-3.14,3.59,3.59,0,0,0-2.75-1.11,4.48,4.48,0,0,0-3.47,1.33,5.37,5.37,0,0,0-1.23,3.77v3a4.92,4.92,0,0,0,1.35,3.7,5.17,5.17,0,0,0,3.76,1.31,7.26,7.26,0,0,0,2.46-.44,7.43,7.43,0,0,0,2.21-1.25l4.05,3.59a13.5,13.5,0,0,1-4.12,2.58,12.25,12.25,0,0,1-4.6.92A12.64,12.64,0,0,1,250.43,483.06Z" transform="translate(0 -78.9)"/><path d="M283.85,451.11H290V484h-6.19ZM287,478h7.88a6.9,6.9,0,0,0,4.72-1.47,5.24,5.24,0,0,0,1.68-4.16v-9.67a5.22,5.22,0,0,0-1.68-4.15,6.9,6.9,0,0,0-4.72-1.47H287v-6h7.75a16.38,16.38,0,0,1,7,1.37,9.74,9.74,0,0,1,4.42,4,12.59,12.59,0,0,1,1.51,6.37v9.3a12.62,12.62,0,0,1-1.46,6.19,10,10,0,0,1-4.37,4.11,15.72,15.72,0,0,1-7.14,1.47H287Z" transform="translate(0 -78.9)"/><path d="M318,483.06a8.38,8.38,0,0,1-3.67-3.59,11.82,11.82,0,0,1-1.27-5.68v-2.65a13.3,13.3,0,0,1,1.21-5.94,8.42,8.42,0,0,1,3.52-3.75,11.35,11.35,0,0,1,5.59-1.29,9,9,0,0,1,5.27,1.54,9.44,9.44,0,0,1,3.33,4.46,19.49,19.49,0,0,1,1.14,7.06v1.54h-16v-4.18h10.39l-.07-.54a5.42,5.42,0,0,0-1.27-3.14,3.57,3.57,0,0,0-2.75-1.11,4.46,4.46,0,0,0-3.46,1.33,5.32,5.32,0,0,0-1.23,3.77v3a4.91,4.91,0,0,0,1.34,3.7,5.17,5.17,0,0,0,3.76,1.31,7.26,7.26,0,0,0,2.46-.44,7.6,7.6,0,0,0,2.22-1.25l4,3.59a13.57,13.57,0,0,1-4.11,2.58,12.3,12.3,0,0,1-4.61.92A12.57,12.57,0,0,1,318,483.06Z" transform="translate(0 -78.9)"/><path d="M344.75,476.2a1.74,1.74,0,0,0,.48,1.32,2,2,0,0,0,1.39.47h1v6H344.5a5.76,5.76,0,0,1-4.38-1.63,6.34,6.34,0,0,1-1.56-4.58V451.11h6.19Z" transform="translate(0 -78.9)"/><path d="M351.61,451.11h6.19v6.19h-6.19Zm0,9.39h6.19V484h-6.19Z" transform="translate(0 -78.9)"/><path d="M376.91,460.5h6.17L374.27,484h-4.38l-8.81-23.45h6.17l4.83,14.71Z" transform="translate(0 -78.9)"/><path d="M390.5,483.06a8.43,8.43,0,0,1-3.67-3.59,11.94,11.94,0,0,1-1.27-5.68v-2.65a13.44,13.44,0,0,1,1.21-5.94,8.44,8.44,0,0,1,3.53-3.75,11.3,11.3,0,0,1,5.59-1.29,9,9,0,0,1,5.26,1.54,9.44,9.44,0,0,1,3.33,4.46,19.49,19.49,0,0,1,1.14,7.06v1.54h-16v-4.18H400l-.06-.54a5.43,5.43,0,0,0-1.28-3.14,3.55,3.55,0,0,0-2.74-1.11,4.48,4.48,0,0,0-3.47,1.33,5.37,5.37,0,0,0-1.23,3.77v3a5,5,0,0,0,1.34,3.7,5.18,5.18,0,0,0,3.76,1.31,7.26,7.26,0,0,0,2.46-.44A7.36,7.36,0,0,0,401,477.2l4,3.59a13.57,13.57,0,0,1-4.11,2.58,12.3,12.3,0,0,1-4.61.92A12.57,12.57,0,0,1,390.5,483.06Z" transform="translate(0 -78.9)"/><path d="M411,460.5h6.64V484H411Zm12.09,5.85a4.68,4.68,0,0,0-1.52-.22,3.59,3.59,0,0,0-2.9,1.21,5,5,0,0,0-1,3.35l-.47-6.1a8.36,8.36,0,0,1,2.52-3.26,5.5,5.5,0,0,1,3.4-1.17,7.19,7.19,0,0,1,2.65.47,5.87,5.87,0,0,1,2.07,1.36l-3.62,5A2.88,2.88,0,0,0,423.13,466.35Z" transform="translate(0 -78.9)"/><path d="M428.3,460.5h5.83L442,480.88l-3.91,5Zm21.66,0-10.44,28.94a7.47,7.47,0,0,1-1.45,2.54,5,5,0,0,1-2.15,1.34,10.52,10.52,0,0,1-3.15.41h-1.38v-6h1.38a3,3,0,0,0,1.66-.44,2.66,2.66,0,0,0,1-1.43l8.69-25.35Z" transform="translate(0 -78.9)"/></svg>