<svg id="e023b790-839a-4500-827f-5cc93e94c005" data-name="Layer 1" xmlns="http://www.w3.org/2000/svg" viewBox="0 0 330 245.4"><title>login</title><path d="M169.39,199.4a15,15,0,0,0,21.21,21.21l45-45a14.53,14.53,0,0,0,1-1.09c.07-.08.13-.18.2-.26.23-.3.46-.6.68-.92l.15-.25c.21-.33.42-.66.6-1a1.51,1.51,0,0,0,.09-.18c.2-.38.38-.76.54-1.15l.05-.12c.16-.41.32-.83.45-1.26l0-.14a10.88,10.88,0,0,0,.32-1.28c0-.12,0-.24.06-.36.06-.36.12-.72.16-1.09s.08-1,.08-1.5a14.72,14.72,0,0,0-.08-1.49c0-.38-.1-.74-.16-1.1,0-.12,0-.24-.06-.36-.08-.44-.2-.86-.32-1.29l0-.13c-.13-.43-.29-.85-.46-1.26a.56.56,0,0,0,0-.12c-.16-.39-.35-.77-.54-1.15l-.09-.17c-.18-.35-.39-.69-.6-1-.06-.08-.1-.16-.16-.25-.21-.31-.44-.62-.68-.91l-.19-.27c-.31-.37-.64-.74-1-1.09l-45-45a15,15,0,0,0-21.21,21.21L188.78,150H15a15,15,0,0,0,0,30H188.79Z" transform="translate(0 -42.3)" style="fill:#0e212b"/><path d="M207.3,42.3A122.6,122.6,0,0,0,105.4,96.63a15,15,0,0,0,24.9,16.74,92.69,92.69,0,1,1,.12,103.45,15,15,0,0,0-24.86,16.8A122.71,122.71,0,1,0,207.3,42.3Z" transform="translate(0 -42.3)" style="fill:#0e212b"/></svg>