<svg id="a82007a7-1933-43fc-a507-f457987f67fe" data-name="Capa 1" xmlns="http://www.w3.org/2000/svg" viewBox="0 0 489.7 353.63"><title>money</title><path d="M403.5,154.5H86.3a46,46,0,0,1-36.5,37.7V297.5a45.86,45.86,0,0,1,36.5,37.7H403.9a46,46,0,0,1,36.5-37.7V192.6C421.7,189.1,407,174,403.5,154.5Zm-98.13,94.57a60.6,60.6,0,1,1-64.44-64.44A60.77,60.77,0,0,1,305.37,249.07Z" transform="translate(0 -110.2)" style="fill:#4ae02f"/><path d="M454.45,110.2H35.25A35.25,35.25,0,0,1,0,145.45v198.8A35.25,35.25,0,0,1,35.25,379.5h419.2a35.25,35.25,0,0,1,35.25-35.25V145.45A35.25,35.25,0,0,1,454.45,110.2Zm1.45,194.7a7.81,7.81,0,0,1-7.8,7.8c-16.34,0-29.56,13.66-29.5,30.82a7.75,7.75,0,0,1-7.8,7.68H78.9a7.81,7.81,0,0,1-7.8-7.84c0-16.65-13.17-30.61-29.42-30.66a7.83,7.83,0,0,1-7.88-7.79V185.2a7.85,7.85,0,0,1,7.89-7.8c16.26,0,29.41-13.63,29.41-30.7a7.8,7.8,0,0,1,7.8-7.8h332a7.78,7.78,0,0,1,7.8,7.74c0,16.73,13.18,30.76,29.5,30.76a7.81,7.81,0,0,1,7.8,7.8Z" transform="translate(0 -110.2)" style="fill:#4ae02f"/><path d="M266,259.8A20.81,20.81,0,0,0,245.7,239h-.3a9.11,9.11,0,0,1-9.1-7.54A8.91,8.91,0,0,1,251.6,224a5.94,5.94,0,0,0,8.7-8.1,21,21,0,0,0-9.2-5.7v-4.1a6.14,6.14,0,0,0-4.63-6,6,6,0,0,0-7.37,5.85V210a20.84,20.84,0,0,0,5.4,40.8h.3a9.11,9.11,0,0,1,9.1,7.54,8.91,8.91,0,0,1-15.3,7.46,5.94,5.94,0,1,0-8.7,8.1,21,21,0,0,0,9.2,5.7v4a6.14,6.14,0,0,0,4.63,6,6,6,0,0,0,7.37-5.85v-4.1A20.76,20.76,0,0,0,266,259.8Z" transform="translate(0 -110.2)" style="fill:#4ae02f"/><path d="M99.34,454.16a19.71,19.71,0,0,1-4.22-1.39,16.14,16.14,0,0,1-3.54-2.2l2.87-5.11a14.11,14.11,0,0,0,4.38,2.41,15.88,15.88,0,0,0,5.11.85,9.08,9.08,0,0,0,4.7-1,3.24,3.24,0,0,0,1.67-2.91v0a2.87,2.87,0,0,0-.75-2.08,4.54,4.54,0,0,0-1.94-1.13,24.56,24.56,0,0,0-3.07-.65.32.32,0,0,0-.13,0l-.12,0-.5-.06a30.55,30.55,0,0,1-5.46-1.3,8.07,8.07,0,0,1-3.69-2.73,8.92,8.92,0,0,1-1.51-5.55v0a10,10,0,0,1,1.42-5.45,9,9,0,0,1,4.14-3.44,16.28,16.28,0,0,1,6.55-1.19,16.78,16.78,0,0,1,3.6.41,19.4,19.4,0,0,1,3.6,1.17,20.28,20.28,0,0,1,3.35,1.86l-2.62,5.24a16.79,16.79,0,0,0-4-2,12,12,0,0,0-4-.72,8.55,8.55,0,0,0-4.41.94,2.91,2.91,0,0,0-1.56,2.63v0a3.08,3.08,0,0,0,.82,2.25,4.87,4.87,0,0,0,2,1.21,32.37,32.37,0,0,0,3.36.81l.18,0,.18,0a1.1,1.1,0,0,1,.26.06l.26.05a27.64,27.64,0,0,1,5.21,1.48,8.09,8.09,0,0,1,3.49,2.8,8.87,8.87,0,0,1,1.4,5.28v0a9.59,9.59,0,0,1-1.47,5.38,9.14,9.14,0,0,1-4.28,3.41,17.56,17.56,0,0,1-6.76,1.17A22.65,22.65,0,0,1,99.34,454.16Z" transform="translate(0 -110.2)"/><path d="M121.65,421.45h6.18v32.84h-6.18Zm13.55,18.64a3.55,3.55,0,0,0-1-2.67,3.88,3.88,0,0,0-2.79-.95,3.55,3.55,0,0,0-2.66,1,3.72,3.72,0,0,0-.94,2.7l-.47-5.19a8.77,8.77,0,0,1,2.54-3.32,6,6,0,0,1,3.72-1.11,6.94,6.94,0,0,1,5.73,2.5q2,2.49,2,7.05v14.23H135.2Z" transform="translate(0 -110.2)"/><path d="M147.15,421.45h6.19v6.19h-6.19Zm0,9.4h6.19v23.44h-6.19Z" transform="translate(0 -110.2)"/><path d="M159.1,430.85h6.18v33H159.1Zm8.08,22.73a6.18,6.18,0,0,1-2.21-3l.31-5.35a4.33,4.33,0,0,0,.41,2,2.82,2.82,0,0,0,1.19,1.25,3.93,3.93,0,0,0,1.88.43,3.32,3.32,0,0,0,2.7-1.16,4.92,4.92,0,0,0,1-3.25v-3.73a5.16,5.16,0,0,0-1-3.33,3.28,3.28,0,0,0-2.7-1.18,3.71,3.71,0,0,0-1.88.44,2.87,2.87,0,0,0-1.19,1.27,4.66,4.66,0,0,0-.41,2l-.47-5.2a7.75,7.75,0,0,1,2.5-3.17,5.67,5.67,0,0,1,3.42-1.12,7,7,0,0,1,7,4.7,15,15,0,0,1,.92,5.53v3.75a14.64,14.64,0,0,1-.92,5.48,7,7,0,0,1-7,4.66A6,6,0,0,1,167.18,453.58Z" transform="translate(0 -110.2)"/><path d="M184.26,430.85h6.19v33h-6.19Zm8.08,22.73a6.18,6.18,0,0,1-2.21-3l.32-5.35a4.34,4.34,0,0,0,.4,2,2.88,2.88,0,0,0,1.19,1.25,3.94,3.94,0,0,0,1.89.43,3.33,3.33,0,0,0,2.7-1.16,4.92,4.92,0,0,0,1-3.25v-3.73a5.16,5.16,0,0,0-1-3.33,3.29,3.29,0,0,0-2.7-1.18,3.72,3.72,0,0,0-1.89.44,2.93,2.93,0,0,0-1.19,1.27,4.67,4.67,0,0,0-.4,2l-.48-5.2a7.92,7.92,0,0,1,2.5-3.17,5.67,5.67,0,0,1,3.42-1.12,7,7,0,0,1,7,4.7,14.75,14.75,0,0,1,.92,5.53v3.75a14.44,14.44,0,0,1-.92,5.48,7,7,0,0,1-7,4.66A6,6,0,0,1,192.34,453.58Z" transform="translate(0 -110.2)"/><path d="M209.08,421.45h6.19v6.19h-6.19Zm0,9.4h6.19v23.44h-6.19Z" transform="translate(0 -110.2)"/><path d="M221,430.85h6.19v23.44H221Zm13.55,9.24a3.51,3.51,0,0,0-1-2.67,3.85,3.85,0,0,0-2.79-.95,3.53,3.53,0,0,0-2.65,1,3.68,3.68,0,0,0-.94,2.7l-.47-5.19a8.57,8.57,0,0,1,2.54-3.32,6,6,0,0,1,3.71-1.11,7,7,0,0,1,5.74,2.5q2,2.49,2,7.05v14.23h-6.19Z" transform="translate(0 -110.2)"/><path d="M249.82,453.44a7.49,7.49,0,0,1-2.7-3.47,14.44,14.44,0,0,1-.93-5.48v-3.75a14.74,14.74,0,0,1,.93-5.53,7,7,0,0,1,7-4.7,5.67,5.67,0,0,1,3.42,1.12A7.81,7.81,0,0,1,260,434.8l-.47,5.2a4.66,4.66,0,0,0-.41-2,2.85,2.85,0,0,0-1.18-1.27,3.72,3.72,0,0,0-1.89-.44,3.28,3.28,0,0,0-2.7,1.18,5.16,5.16,0,0,0-1,3.33v3.73a4.92,4.92,0,0,0,1,3.25,3.32,3.32,0,0,0,2.7,1.16,3.94,3.94,0,0,0,1.89-.43,2.8,2.8,0,0,0,1.18-1.25,4.33,4.33,0,0,0,.41-2l.32,5.35a6.2,6.2,0,0,1-2.22,3,6,6,0,0,1-3.54,1.05A7.48,7.48,0,0,1,249.82,453.44Zm.36,9.4a7.86,7.86,0,0,1-3.42-2.76l4.15-3.82a5.41,5.41,0,0,0,1.9,1.32,5.9,5.9,0,0,0,2.3.46,4.68,4.68,0,0,0,3.18-1.06,3.66,3.66,0,0,0,1.23-2.93v-23.2h6.19v22.74a11.62,11.62,0,0,1-1.23,5.54,8.2,8.2,0,0,1-3.59,3.5,12.51,12.51,0,0,1-5.71,1.2A12.09,12.09,0,0,1,250.18,462.84Z" transform="translate(0 -110.2)"/><path d="M284.68,421.43h6.19v32.86h-6.19Zm2.46,13.69h11.43a2.94,2.94,0,0,0,2.79-1.83,5.32,5.32,0,0,0,0-4.07,3.07,3.07,0,0,0-1.12-1.35,3,3,0,0,0-1.7-.48H287.14v-6h11.93a9.2,9.2,0,0,1,4.77,1.22,8.21,8.21,0,0,1,3.18,3.44,12.37,12.37,0,0,1,0,10.33,8.23,8.23,0,0,1-3.19,3.44,9.24,9.24,0,0,1-4.76,1.22H287.14Zm6.92,4.94,6.61-1,8.86,15.27H302Z" transform="translate(0 -110.2)"/><path d="M314.44,452.84q-1.86-1.8-1.86-5.46a6.38,6.38,0,0,1,2.09-5.22q2.08-1.73,6.27-1.73h5.87l.31,4.72H321a3.31,3.31,0,0,0-2.1.55,2,2,0,0,0-.7,1.68,1.87,1.87,0,0,0,.88,1.71,5.08,5.08,0,0,0,2.66.55,9.33,9.33,0,0,0,3.7-.56,1.86,1.86,0,0,0,1.2-1.77l.48,3.42a3.22,3.22,0,0,1-1.16,2.14,6.7,6.7,0,0,1-2.58,1.32,11.62,11.62,0,0,1-3.26.44Q316.3,454.63,314.44,452.84Zm12.16-13.41a3.07,3.07,0,0,0-1.08-2.51,4.8,4.8,0,0,0-3.07-.88,8.38,8.38,0,0,0-2.6.43,7.74,7.74,0,0,0-2.28,1.2l-3.84-3.77a9.29,9.29,0,0,1,3.7-2.5,14.16,14.16,0,0,1,5.11-.89,12.09,12.09,0,0,1,5.24,1,7.39,7.39,0,0,1,3.31,3,9.18,9.18,0,0,1,1.14,4.71v15.06H326.6Z" transform="translate(0 -110.2)"/><path d="M336.52,430.85H348v5.28H336.52Zm3.85,22a6.71,6.71,0,0,1-1.43-4.64V424h6.19v22.63a2.26,2.26,0,0,0,.33,1.32,1.16,1.16,0,0,0,1,.46H348v6h-3.12A5.86,5.86,0,0,1,340.37,452.84Z" transform="translate(0 -110.2)"/><path d="M357.67,453.4a8.48,8.48,0,0,1-3.67-3.59,11.91,11.91,0,0,1-1.26-5.68v-2.64a13.3,13.3,0,0,1,1.21-5.94,8.42,8.42,0,0,1,3.52-3.75,11.32,11.32,0,0,1,5.59-1.29,8.88,8.88,0,0,1,5.26,1.54,9.45,9.45,0,0,1,3.34,4.46,19.43,19.43,0,0,1,1.14,7.05v1.54h-16v-4.18h10.39l-.07-.54a5.45,5.45,0,0,0-1.27-3.14,3.57,3.57,0,0,0-2.75-1.11,4.49,4.49,0,0,0-3.47,1.34,5.33,5.33,0,0,0-1.23,3.77v3a4.9,4.9,0,0,0,1.35,3.7,5.12,5.12,0,0,0,3.76,1.31,7,7,0,0,0,2.46-.44,7.43,7.43,0,0,0,2.21-1.25l4.05,3.59a13.41,13.41,0,0,1-4.11,2.59,12.33,12.33,0,0,1-4.61.91A12.64,12.64,0,0,1,357.67,453.4Z" transform="translate(0 -110.2)"/><path d="M383.1,454.26a18.79,18.79,0,0,1-3.73-1.09,14.37,14.37,0,0,1-3.07-1.74l3.81-4.77a15.1,15.1,0,0,0,3.55,1.67,11.74,11.74,0,0,0,3.52.59,9.13,9.13,0,0,0,3.37-.49c.8-.32,1.2-.77,1.2-1.34a1.45,1.45,0,0,0-.52-1.2,3.16,3.16,0,0,0-1.34-.57,19.45,19.45,0,0,0-2.28-.31l-.82-.09-.85-.09a1.08,1.08,0,0,0-.19,0l-.19,0a24.78,24.78,0,0,1-4.2-.83,5.37,5.37,0,0,1-2.68-1.91,6.59,6.59,0,0,1-1.1-4.1,6.64,6.64,0,0,1,4.41-6.56,13.81,13.81,0,0,1,5.19-.87,17.84,17.84,0,0,1,3.56.36,18.36,18.36,0,0,1,3.4,1,15.79,15.79,0,0,1,3,1.63L393.46,438a14.63,14.63,0,0,0-3.2-1.33,11.68,11.68,0,0,0-3.21-.48,8.07,8.07,0,0,0-2.92.43c-.69.29-1,.69-1,1.2a1,1,0,0,0,.55.91,4.14,4.14,0,0,0,1.38.48q.83.15,2.4.33l.41,0,.41.05.2,0,.2,0a26.92,26.92,0,0,1,4.45.82,5.79,5.79,0,0,1,2.93,2,6.89,6.89,0,0,1,1.21,4.38,6.94,6.94,0,0,1-4.61,6.84,14.52,14.52,0,0,1-5.45.91A21.88,21.88,0,0,1,383.1,454.26Z" transform="translate(0 -110.2)"/></svg>