<svg id="ae268742-0fdd-4ef4-a1da-2ddbfd45e8a4" data-name="e6be8923-d0a4-47ea-ab67-4ab114c51d5e" xmlns="http://www.w3.org/2000/svg" xmlns:xlink="http://www.w3.org/1999/xlink" viewBox="0 0 331.01 83.02"><defs><clipPath id="e6606f64-ec5c-4de6-9f9e-ff6fa9ddeea3" transform="translate(0 -6.58)"><rect y="6.19" width="130.7" height="82.57" rx="4.43" style="fill:none"/></clipPath></defs><title>payment</title><g id="fafc12e6-f0f3-4582-b673-56c09e1bbb36" data-name="a3901d91-2c69-402c-9fe3-a4663480e356"><g style="clip-path:url(#e6606f64-ec5c-4de6-9f9e-ff6fa9ddeea3)"><rect width="130.7" height="83.02" style="fill:#fff"/><rect x="2.18" y="69.53" width="126.34" height="11.33" style="fill:#f7b70b"/><rect x="2.18" y="2.17" width="126.34" height="11.33" style="fill:#282f67"/></g></g><path id="eabd7bd6-5ae4-400f-9b5f-085146774de2" data-name="b9f2cc17-1b0a-496e-8f49-6223c716279b" d="M52.75,32l-13,31.13H31.19L24.76,38.32a3.39,3.39,0,0,0-1.91-2.73,33.7,33.7,0,0,0-7.94-2.65l.19-.9H28.8a3.77,3.77,0,0,1,3.72,3.17l3.39,18L44.29,32ZM86.11,53c0-8.22-11.36-8.68-11.28-12.35,0-1.11,1.09-2.3,3.41-2.6a15.23,15.23,0,0,1,8,1.39l1.41-6.61a22.05,22.05,0,0,0-7.54-1.37c-8,0-13.56,4.23-13.61,10.29,0,4.48,4,7,7,8.47s4.2,2.51,4.18,3.87c0,2.09-2.5,3-4.82,3a16.8,16.8,0,0,1-8.27-2L63.08,62a24.24,24.24,0,0,0,9,1.65c8.47,0,14-4.18,14-10.65m21,10.16h7.45L108,32H101.1a3.65,3.65,0,0,0-3.43,2.28l-12,28.85h8.46l1.68-4.65h10.33Zm-9-11,4.24-11.69,2.44,11.69ZM64.14,32.07,57.48,63.2h-8l6.66-31.13Z" transform="translate(0 -6.58)" style="fill:#282f67"/><path id="b7878c48-9cbe-4d1c-b8fe-2f5eaae61744" data-name="ba9bd0c9-7b93-4718-a09d-c445db111cb5" d="M326.8,86.77h-116a4.22,4.22,0,0,1-4.21-4.21V12.39a4.23,4.23,0,0,1,4.21-4.21h116A4.23,4.23,0,0,1,331,12.39V82.56A4.22,4.22,0,0,1,326.8,86.77Z" transform="translate(0 -6.58)" style="fill:#010202"/><g id="bc62eb1c-82b2-4a9f-8bce-f1d1197fc0a6" data-name="fe5099a6-115a-400c-97cd-68974934a75c"><path d="M241.54,80.22V75.77A2.58,2.58,0,0,0,239.18,73h-.36a2.77,2.77,0,0,0-2.48,1.26A2.6,2.6,0,0,0,234,73a2.47,2.47,0,0,0-2.13,1v-.86h-1.41v7.06h1.43V76.13a1.69,1.69,0,0,1,1.5-1.86h.29c1,0,1.59.66,1.59,1.86v4.06h1.43V76.13a1.71,1.71,0,0,1,1.53-1.87h.26c1,0,1.61.67,1.61,1.87v4h1.43Zm23-7.06H262V71h-1.43v2.14h-1.49v1.28h1.49v3.34c0,1.64.57,2.61,2.39,2.61a3.53,3.53,0,0,0,1.92-.54l-.45-1.21A2.73,2.73,0,0,1,263,79c-.77,0-1.08-.47-1.08-1.18V74.44h2.57ZM277.63,73a2.23,2.23,0,0,0-1.92,1v-.86h-1.4v7.06h1.42v-4c0-1.16.56-1.91,1.56-1.91a2.63,2.63,0,0,1,1,.17l.48-1.33a3.74,3.74,0,0,0-1.1-.19Zm-19.79.74A5.39,5.39,0,0,0,255,73c-1.79,0-2.88.84-2.88,2.25,0,1.15.8,1.84,2.38,2.06l.72.11c.84.11,1.3.41,1.3.81s-.62.9-1.67.9a3.55,3.55,0,0,1-2.35-.74l-.72,1.11a5.14,5.14,0,0,0,3.06.91c2,0,3.15-.94,3.15-2.29s-.85-1.87-2.4-2.09l-.73-.11c-.66-.08-1.25-.29-1.25-.76s.56-.87,1.4-.87a4.71,4.71,0,0,1,2.2.6Zm21.4,3a3.5,3.5,0,0,0,3.31,3.7,2.67,2.67,0,0,0,.4,0,3.67,3.67,0,0,0,2.54-.84l-.74-1.11a3,3,0,0,1-1.85.64,2.4,2.4,0,0,1,0-4.78,3.15,3.15,0,0,1,1.85.63l.74-1.11A3.77,3.77,0,0,0,283,73a3.53,3.53,0,0,0-3.71,3.32,2.54,2.54,0,0,0,0,.39ZM269.32,73a3.42,3.42,0,0,0-3.49,3.33c0,.12,0,.24,0,.36A3.46,3.46,0,0,0,269,80.42a2.67,2.67,0,0,0,.4,0,4.25,4.25,0,0,0,2.89-1l-.75-1a3.3,3.3,0,0,1-2.06.73,2.07,2.07,0,0,1-2.17-1.83h5.27a5.8,5.8,0,0,0,0-.59c0-2.2-1.34-3.69-3.32-3.69Zm0,1.32a1.8,1.8,0,0,1,1.86,1.72v.06h-3.81A1.89,1.89,0,0,1,269.32,74.33Zm-19.1,2.39V73.19H248.8v.86a2.82,2.82,0,0,0-2.29-1,3.71,3.71,0,0,0,0,7.41,2.76,2.76,0,0,0,2.29-1v.86h1.42Zm-5.71,0a2.21,2.21,0,0,1,2-2.38h.18a2.4,2.4,0,0,1,0,4.78,2.21,2.21,0,0,1-2.21-2.21c0-.06,0-.12,0-.18ZM299,73a2.23,2.23,0,0,0-1.92,1v-.86h-1.4v7.06h1.42v-4c0-1.16.56-1.91,1.56-1.91a2.63,2.63,0,0,1,1,.17l.47-1.33A3.67,3.67,0,0,0,299,73Zm11.37,6.21a.67.67,0,0,1,.28.06.91.91,0,0,1,.23.15,1.07,1.07,0,0,1,.15.22.65.65,0,0,1,.05.27.59.59,0,0,1-.05.27.65.65,0,0,1-.38.38.77.77,0,0,1-.56,0,.65.65,0,0,1-.38-.38.6.6,0,0,1-.06-.27.66.66,0,0,1,.06-.27,1.07,1.07,0,0,1,.15-.22.61.61,0,0,1,.23-.15,1.06,1.06,0,0,1,.25-.09Zm0,1.25a.37.37,0,0,0,.21,0,.33.33,0,0,0,.17-.12.52.52,0,0,0,.12-.17.41.41,0,0,0,0-.22.74.74,0,0,0,0-.21.63.63,0,0,0-.29-.29.61.61,0,0,0-.42,0,.57.57,0,0,0-.18.12.45.45,0,0,0-.11.17.54.54,0,0,0-.05.21.51.51,0,0,0,.05.22.34.34,0,0,0,.11.17.36.36,0,0,0,.18.12.57.57,0,0,0,.18,0Zm0-.88a.36.36,0,0,1,.2.06.22.22,0,0,1,.06.15.14.14,0,0,1-.05.14.22.22,0,0,1-.15.06l.21.25h-.17l-.2-.25h-.06v.25h-.14V79.6h.3Zm-.16.13v.17h.3a.08.08,0,0,0,0-.07.06.06,0,0,0,0-.06h-.09Zm-16.68-3V73.19H292.1v.86a2.82,2.82,0,0,0-2.29-1,3.71,3.71,0,0,0,0,7.41,2.76,2.76,0,0,0,2.29-1v.86h1.42Zm-5.72,0a2.21,2.21,0,0,1,2-2.38H290a2.4,2.4,0,0,1,0,4.78,2.21,2.21,0,0,1-2.21-2.21c0-.06,0-.12,0-.18Zm20,0V70.35H306.4v3.7a2.82,2.82,0,0,0-2.29-1,3.71,3.71,0,0,0,0,7.41,2.77,2.77,0,0,0,2.29-1v.86h1.41Zm-5.71,0a2.21,2.21,0,0,1,2-2.38h.18a2.4,2.4,0,0,1,0,4.78A2.2,2.2,0,0,1,302,76.93a1.93,1.93,0,0,1,0-.24Z" transform="translate(0 -6.58)" style="fill:#fff"/><rect x="256.18" y="12.88" width="25.55" height="41.73" style="fill:#ec6226"/><path d="M258.83,40.33A26.53,26.53,0,0,1,269,19.46a26.55,26.55,0,1,0,0,41.73A26.48,26.48,0,0,1,258.83,40.33Z" transform="translate(0 -6.58)" style="fill:#e52328"/><path d="M309.4,56.77v-.85h.35v-.18h-.88v.18h.34v.85Zm1.71,0v-1h-.27l-.31.71-.31-.71H310v1h.19V56l.29.67h.2l.29-.68v.78Z" transform="translate(0 -6.58)" style="fill:#f59e22"/><path d="M311.9,40.33A26.52,26.52,0,0,1,269,61.19a26.56,26.56,0,0,0,0-41.73A26.54,26.54,0,0,1,311.9,40.33Z" transform="translate(0 -6.58)" style="fill:#f59e22"/></g></svg>