<svg id="ad085a4e-534c-4cfe-9670-248d71fce682" data-name="Capa 1" xmlns="http://www.w3.org/2000/svg" viewBox="0 0 311.54 258.88"><title>profile</title><path d="M155.77,26.33A155.77,155.77,0,0,0,35.31,280.86c3.41-27.25,30.63-50.3,68.8-61.22,14,13,32,20.88,51.66,20.88,19.23,0,36.89-7.49,50.7-19.94,38.5,11.87,65.14,36.27,66,64.63A155.73,155.73,0,0,0,155.77,26.33Zm0,195.74a55.66,55.66,0,0,1-27.63-7.46c-20-11.41-33.86-34.76-33.86-61.72,0-38.14,27.58-69.17,61.49-69.17s61.49,31,61.49,69.17c0,27.37-14.24,51-34.79,62.22A55.52,55.52,0,0,1,155.77,222.07Z" transform="translate(0 -26.33)" style="fill:#0e212b"/></svg>